<?xml version="1.0" standalone="no"?>
<!DOCTYPE svg PUBLIC "-//W3C//DTD SVG 20010904//EN"
 "http://www.w3.org/TR/2001/REC-SVG-20010904/DTD/svg10.dtd">
<svg version="1.0" xmlns="http://www.w3.org/2000/svg"
 width="700.000000pt" height="700.000000pt" viewBox="0 0 700.000000 700.000000"
 preserveAspectRatio="xMidYMid meet">
<metadata>
Created by potrace 1.14, written by Peter Selinger 2001-2017
</metadata>
<g transform="translate(0.000000,700.000000) scale(0.100000,-0.100000)"
fill="#000000" stroke="none">
<path d="M789 6996 c-2 -2 -17 -7 -34 -10 -176 -32 -344 -137 -452 -281 -97
-130 -144 -283 -139 -455 10 -333 228 -602 556 -686 65 -17 226 -23 285 -11
93 18 124 28 187 59 l60 29 32 -25 c82 -65 537 -420 666 -520 132 -102 843
-656 915 -712 17 -13 97 -75 179 -139 81 -63 162 -126 180 -140 17 -14 36 -29
41 -33 32 -24 182 -140 203 -158 l26 -22 -36 -58 c-133 -217 -222 -474 -254
-734 -9 -73 -10 -329 -1 -405 31 -278 118 -528 265 -768 l54 -88 -341 -341
c-240 -240 -345 -339 -356 -334 -32 12 -112 20 -182 19 -236 -6 -458 -174
-534 -404 -26 -80 -35 -220 -20 -302 32 -166 160 -335 311 -409 237 -117 502
-76 686 107 144 143 204 337 164 529 l-12 59 337 337 337 337 96 -65 c213
-143 454 -237 737 -287 167 -29 439 -23 627 15 553 112 1023 472 1277 977 35
72 109 257 116 293 2 8 8 35 15 60 59 220 73 511 35 745 -40 254 -139 508
-278 715 -279 416 -696 693 -1182 786 -22 5 -43 7 -47 6 -10 -2 -9 -30 -11
441 l-2 394 37 18 c112 54 238 197 287 325 35 90 43 131 45 234 7 258 -127
479 -362 596 -83 41 -175 61 -286 61 -154 0 -291 -47 -404 -139 -70 -57 -82
-70 -136 -152 -43 -65 -72 -123 -80 -164 -3 -11 -9 -34 -14 -51 -13 -44 -15
-194 -2 -263 34 -187 167 -369 331 -451 l26 -13 0 -414 c0 -228 -3 -416 -7
-419 -4 -3 -24 -7 -44 -9 -59 -8 -235 -57 -321 -89 -122 -46 -370 -179 -405
-217 -11 -12 -79 -60 -85 -60 -5 0 -82 57 -95 70 -4 5 -496 388 -630 491 -71
55 -228 177 -290 226 -30 24 -59 47 -65 51 -27 20 -183 142 -229 178 -28 22
-82 65 -121 94 -38 30 -214 167 -390 304 -176 137 -335 261 -354 275 -18 14
-50 40 -70 56 l-37 30 12 67 c50 307 -102 616 -376 761 -64 34 -137 61 -195
72 -36 8 -240 16 -246 11z m4485 -3211 c400 -116 676 -476 677 -885 1 -122 -6
-171 -37 -277 -91 -316 -359 -572 -672 -644 -26 -6 -56 -13 -67 -15 -11 -3
-67 -7 -125 -9 -205 -7 -392 48 -570 168 -58 40 -188 169 -228 228 -101 149
-161 333 -166 511 -14 484 349 898 834 954 30 3 56 7 57 8 11 9 229 -19 297
-39z"/>
</g>
</svg>
